<svg xmlns="http://www.w3.org/2000/svg" xmlns:xlink="http://www.w3.org/1999/xlink" width="500" zoomAndPan="magnify" viewBox="0 0 375 374.999991" height="500" preserveAspectRatio="xMidYMid meet" version="1.0"><defs><filter x="0%" y="0%" width="100%" height="100%" id="3059fc0879"><feColorMatrix values="0 0 0 0 1 0 0 0 0 1 0 0 0 0 1 0 0 0 1 0" color-interpolation-filters="sRGB"/></filter><g/><clipPath id="616b5ad618"><path d="M 46.230469 74 L 331.230469 74 L 331.230469 232.949219 L 46.230469 232.949219 Z M 46.230469 74 " clip-rule="nonzero"/></clipPath><mask id="567e16fab1"><g filter="url(#3059fc0879)"><rect x="-37.5" width="450" fill="#000000" y="-37.499999" height="449.999989" fill-opacity="0.3765"/></g></mask><clipPath id="58eaf18d10"><path d="M 0.253906 9.273438 L 217.753906 9.273438 L 217.753906 217.773438 L 0.253906 217.773438 Z M 0.253906 9.273438 " clip-rule="nonzero"/></clipPath><clipPath id="8b07492c85"><rect x="0" width="218" y="0" height="218"/></clipPath><mask id="972efceeea"><g filter="url(#3059fc0879)"><rect x="-37.5" width="450" fill="#000000" y="-37.499999" height="449.999989" fill-opacity="0.2275"/></g></mask><clipPath id="2cc200ce39"><path d="M 1.253906 0.441406 L 215.753906 0.441406 L 215.753906 247 L 1.253906 247 Z M 1.253906 0.441406 " clip-rule="nonzero"/></clipPath><clipPath id="6963aefb94"><rect x="0" width="217" y="0" height="248"/></clipPath><mask id="6325c5311f"><g filter="url(#3059fc0879)"><rect x="-37.5" width="450" fill="#000000" y="-37.499999" height="449.999989" fill-opacity="0.8863"/></g></mask><clipPath id="03e1a44f1e"><rect x="0" width="53" y="0" height="155"/></clipPath></defs><g clip-path="url(#616b5ad618)"><path fill="#625141" d="M 315.855469 120.785156 C 315.386719 120.175781 315.101562 119.101562 315.285156 118.386719 C 315.828125 116.34375 315.210938 114.675781 314.039062 113.132812 C 311.707031 110.078125 309.332031 107.054688 306.941406 104.046875 C 304.960938 101.550781 302.929688 99.089844 300.910156 96.628906 C 299.53125 94.953125 298.65625 93.097656 298.273438 90.925781 C 297.652344 87.375 296.105469 86.714844 292.976562 88.59375 C 290.527344 90.054688 288 91.144531 285.085938 90.585938 C 281.71875 89.941406 278.363281 89.195312 275.003906 88.492188 C 271.15625 87.683594 267.324219 86.761719 263.449219 86.117188 C 261.839844 85.847656 260.128906 86.085938 258.472656 86.230469 C 256.148438 86.433594 254.027344 85.933594 252.203125 84.511719 C 249.492188 82.398438 246.828125 80.222656 244.199219 78.007812 C 242.207031 76.324219 240.058594 74.964844 237.597656 74.078125 L 230.257812 74.078125 C 225.792969 74.929688 221.695312 76.976562 217.394531 78.34375 C 216.890625 78.503906 216.152344 78.828125 216.054688 79.214844 C 215.710938 80.5625 214.730469 80.46875 213.789062 80.40625 C 207.179688 79.964844 200.566406 79.621094 193.972656 79 C 181.1875 77.800781 168.414062 76.457031 155.636719 75.128906 C 153.136719 74.871094 150.671875 74.253906 148.171875 74.109375 C 146.820312 74.03125 145.441406 74.699219 144.058594 74.867188 C 137.632812 75.667969 131.203125 76.5 125.066406 78.675781 C 117.839844 81.238281 111.535156 85.488281 105.363281 89.917969 C 102.863281 91.714844 100.339844 93.542969 98.125 95.675781 C 96.148438 97.578125 94.222656 99.714844 92.921875 102.101562 C 90.5 106.558594 87.496094 110.480469 83.992188 114.109375 C 81.574219 116.617188 79.3125 119.289062 77.179688 122.050781 C 73.550781 126.746094 71.871094 132.308594 71.203125 138.074219 C 69.582031 152.035156 64.191406 164.691406 58.320312 177.226562 C 54.609375 185.152344 51.015625 193.125 47.421875 201.097656 C 46.976562 202.085938 46.613281 203.113281 46.257812 204.160156 L 46.257812 213.175781 C 47.621094 217.410156 49.980469 221.160156 52.320312 224.921875 C 53.589844 226.964844 55.617188 227.710938 57.816406 228.015625 C 63.953125 228.863281 70.117188 229.007812 76.285156 228.398438 C 80.277344 228 81.167969 225.949219 79.058594 222.492188 C 78.039062 220.824219 76.617188 220 74.707031 219.929688 C 74.101562 219.910156 73.480469 219.964844 72.890625 219.851562 C 72.078125 219.699219 70.710938 219.574219 70.597656 219.160156 C 70.257812 217.925781 69.109375 216.625 70.386719 215.230469 C 71.917969 213.550781 73.261719 211.6875 74.871094 210.09375 C 83.757812 201.296875 92.730469 192.59375 101.589844 183.777344 C 103.621094 181.753906 105.414062 179.472656 107.175781 177.203125 C 108.632812 175.316406 109.773438 174.703125 111.8125 175.976562 C 114.535156 177.679688 117.078125 179.703125 119.554688 181.761719 C 128.660156 189.320312 133.839844 199.558594 138.8125 209.976562 C 141.269531 215.121094 144.058594 220.125 146.980469 225.019531 C 149.515625 229.257812 153.300781 231.34375 158.488281 231.253906 C 162.242188 231.191406 166.015625 232.042969 169.78125 232.503906 C 170.667969 232.609375 171.542969 232.792969 172.421875 232.933594 L 186.089844 232.933594 C 187.105469 232.5 188.1875 232.179688 189.113281 231.605469 C 190.988281 230.445312 191 228.539062 189.15625 227.339844 C 188.105469 226.65625 186.929688 226.15625 185.796875 225.601562 C 183.707031 224.585938 181.585938 223.636719 179.515625 222.578125 C 176.785156 221.183594 175.019531 218.855469 174.941406 215.859375 C 174.65625 204.949219 171.273438 194.6875 168.644531 184.265625 C 168.261719 182.746094 167.882812 181.222656 167.492188 179.707031 C 167.035156 177.945312 167.382812 177.410156 169.25 177.261719 C 170.660156 177.148438 172.078125 177.140625 173.496094 177.117188 C 175.375 177.089844 177.066406 176.542969 178.589844 175.425781 C 180.179688 174.257812 181.777344 173.101562 183.398438 171.984375 C 184.066406 171.527344 184.769531 171.105469 185.515625 170.800781 C 186.769531 170.289062 187.539062 170.710938 187.585938 172.078125 C 187.648438 173.839844 187.621094 175.628906 187.382812 177.375 C 186.714844 182.382812 185.851562 187.363281 185.1875 192.375 C 184.257812 199.371094 185.589844 206.195312 187.128906 212.953125 C 188.039062 216.929688 189.550781 220.792969 192.664062 223.570312 C 194.589844 225.28125 196.898438 226.730469 199.277344 227.730469 C 205.601562 230.386719 212.261719 231.867188 219.113281 232.398438 C 219.214844 232.40625 219.3125 232.425781 219.417969 232.429688 C 221.417969 232.496094 223.554688 232.640625 224.558594 230.441406 C 225.625 228.109375 225.316406 225.710938 223.738281 223.71875 C 223.15625 222.980469 221.972656 222.605469 220.988281 222.328125 C 218.855469 221.722656 216.652344 221.359375 214.515625 220.753906 C 212.347656 220.136719 211.328125 218.535156 211.308594 216.316406 C 211.238281 209.609375 212.625 203.164062 214.828125 196.867188 C 214.878906 196.726562 214.929688 196.582031 214.992188 196.441406 C 216.203125 193.859375 217.042969 193.601562 218.851562 195.808594 C 222.828125 200.640625 228.367188 202.613281 233.933594 204.6875 C 239.421875 206.730469 244.851562 208.925781 250.277344 211.132812 C 251.332031 211.5625 252.296875 212.285156 253.199219 213.003906 C 254.351562 213.917969 254.488281 215.113281 253.777344 216.394531 C 253.53125 216.835938 253.332031 217.324219 253.003906 217.699219 C 249.511719 221.699219 250.726562 226.132812 251.925781 230.492188 C 252.445312 232.390625 253.625 232.824219 255.800781 232.265625 C 259.074219 231.421875 261.832031 229.640625 264.074219 227.152344 C 265.171875 225.929688 266.179688 224.523438 266.859375 223.035156 C 269.324219 217.652344 270.5625 211.949219 271.128906 206.0625 C 271.746094 199.683594 269.34375 194.742188 264.347656 190.886719 C 262.265625 189.28125 260.363281 187.441406 258.257812 185.867188 C 253.214844 182.105469 252.027344 177.011719 253.078125 171.15625 C 253.894531 166.582031 254.800781 162.019531 255.761719 157.472656 C 257.125 150.996094 259.863281 148.492188 266.65625 147.578125 C 274.667969 146.503906 282.710938 146.648438 290.730469 147.429688 C 296.867188 148.023438 302.976562 148.859375 309.097656 149.597656 C 314.644531 150.265625 319.714844 148.828125 324.515625 146.164062 C 326.765625 144.90625 329.007812 143.636719 331.253906 142.375 L 331.253906 137.210938 C 325.160156 132.636719 320.414062 126.792969 315.855469 120.785156 " fill-opacity="1" fill-rule="nonzero"/></g><g mask="url(#567e16fab1)"><g transform="matrix(1, 0, 0, 1, 71, 99)"><g clip-path="url(#8b07492c85)"><g clip-path="url(#58eaf18d10)"><path fill="#ff1616" d="M 109.003906 168.820312 L 176.238281 217.773438 L 150.503906 138.726562 L 217.738281 90.859375 L 135.28125 90.859375 L 109.003906 9.273438 L 82.726562 90.859375 L 0.269531 90.859375 L 67.503906 138.726562 L 41.859375 217.773438 Z M 109.003906 168.820312 " fill-opacity="1" fill-rule="nonzero"/></g></g></g></g><g mask="url(#972efceeea)"><g transform="matrix(1, 0, 0, 1, 73, 57)"><g clip-path="url(#6963aefb94)"><g clip-path="url(#2cc200ce39)"><path fill="#222f62" d="M 108.484375 0.457031 C 71.832031 83.578125 1.222656 102.46875 1.222656 102.46875 L 1.222656 246.582031 C 61.050781 250.902344 108.484375 205.5625 108.484375 205.5625 C 108.484375 205.5625 155.914062 250.902344 215.742188 246.582031 L 215.742188 102.46875 C 215.742188 102.46875 145.136719 83.578125 108.484375 0.457031 " fill-opacity="1" fill-rule="nonzero"/></g><path fill="#ed1c24" d="M 108.484375 22.046875 C 108.484375 22.046875 66.441406 96.53125 10.386719 107.328125 L 10.386719 237.945312 C 10.386719 237.945312 69.675781 228.769531 108.484375 191.527344 C 147.289062 228.769531 206.578125 237.945312 206.578125 237.945312 L 206.578125 107.328125 C 150.523438 96.53125 108.484375 22.046875 108.484375 22.046875 " fill-opacity="1" fill-rule="nonzero"/><path fill="#ffffff" d="M 108.484375 164.742188 C 108.484375 164.742188 54.046875 209.824219 10.386719 210.90625 L 10.386719 230.390625 C 10.386719 230.390625 64.828125 221.035156 108.484375 183.253906 C 152.140625 221.035156 206.578125 230.390625 206.578125 230.390625 L 206.578125 210.589844 C 162.917969 209.511719 108.484375 164.742188 108.484375 164.742188 " fill-opacity="1" fill-rule="nonzero"/><path fill="#ffffff" d="M 108.484375 121.359375 C 108.484375 121.359375 66.242188 171.757812 10.386719 170.5 L 10.386719 192.609375 C 10.386719 192.609375 54.40625 196.925781 108.484375 145.109375 C 162.5625 196.925781 206.578125 192.609375 206.578125 192.609375 L 206.578125 170.292969 C 148.820312 166.730469 108.484375 121.359375 108.484375 121.359375 " fill-opacity="1" fill-rule="nonzero"/><path fill="#222f62" d="M 108.484375 22.046875 C 108.484375 22.046875 65.183594 94.914062 10.386719 107.328125 L 10.386719 152.9375 C 10.386719 152.9375 57.277344 157.523438 108.484375 103.007812 C 159.6875 157.523438 206.578125 152.9375 206.578125 152.9375 L 206.578125 107.328125 C 151.785156 94.914062 108.484375 22.046875 108.484375 22.046875 " fill-opacity="1" fill-rule="nonzero"/><path fill="#ffffff" d="M 76.144531 80.664062 L 71.992188 93.460938 L 58.554688 93.460938 L 69.429688 101.367188 L 65.277344 114.164062 L 76.144531 106.253906 L 87.015625 114.164062 L 82.863281 101.367188 L 93.734375 93.460938 L 80.292969 93.460938 L 76.144531 80.664062 " fill-opacity="1" fill-rule="nonzero"/><path fill="#ffffff" d="M 42.007812 104.054688 L 37.855469 116.847656 L 24.417969 116.847656 L 35.289062 124.757812 L 31.136719 137.554688 L 42.007812 129.644531 L 52.875 137.554688 L 48.726562 124.757812 L 59.59375 116.847656 L 46.15625 116.847656 L 42.007812 104.054688 " fill-opacity="1" fill-rule="nonzero"/><path fill="#ffffff" d="M 108.484375 56.917969 L 112.632812 69.710938 L 126.070312 69.710938 L 115.199219 77.617188 L 119.351562 90.414062 L 108.484375 82.507812 L 97.613281 90.414062 L 101.761719 77.617188 L 90.894531 69.710938 L 104.332031 69.710938 L 108.484375 56.917969 " fill-opacity="1" fill-rule="nonzero"/><path fill="#ffffff" d="M 140.824219 80.664062 L 144.972656 93.460938 L 158.410156 93.460938 L 147.539062 101.367188 L 151.691406 114.164062 L 140.824219 106.253906 L 129.953125 114.164062 L 134.101562 101.367188 L 123.234375 93.460938 L 136.671875 93.460938 L 140.824219 80.664062 " fill-opacity="1" fill-rule="nonzero"/><path fill="#ffffff" d="M 174.957031 104.054688 L 179.109375 116.847656 L 192.546875 116.847656 L 181.675781 124.757812 L 185.828125 137.554688 L 174.957031 129.644531 L 164.089844 137.554688 L 168.238281 124.757812 L 157.371094 116.847656 L 170.808594 116.847656 L 174.957031 104.054688 " fill-opacity="1" fill-rule="nonzero"/></g></g></g><path stroke-linecap="round" transform="matrix(3.750152, 0, 0, 3.75, 44.866434, 264.652365)" fill="none" stroke-linejoin="miter" d="M 0.500181 -0.00000567231 L 76.298146 -0.00000567231 " stroke="#575756" stroke-width="1" stroke-opacity="1" stroke-miterlimit="4"/><path stroke-linecap="round" transform="matrix(3.74661, 0, 0, 3.75, 49.216033, 231.109365)" fill="none" stroke-linejoin="miter" d="M 0.500135 0.00000271365 L 75.571115 0.00000271365 " stroke="#575756" stroke-width="1" stroke-opacity="1" stroke-miterlimit="4"/><g fill="#575756" fill-opacity="1"><g transform="translate(65.239354, 260.814173)"><g><path d="M 14.25 -22.578125 C 13.648438 -22.578125 13.046875 -22.453125 12.445312 -22.417969 C 11.527344 -22.355469 10.609375 -22.101562 9.722656 -21.816406 C 8.359375 -21.4375 7.09375 -20.804688 5.921875 -20.046875 C 5.605469 -19.824219 5.257812 -19.664062 5.035156 -19.378906 C 4.589844 -18.875 4.117188 -18.429688 3.738281 -17.859375 C 3.167969 -17.035156 2.597656 -16.214844 2.183594 -15.261719 C 2.058594 -14.976562 1.898438 -14.660156 1.835938 -14.34375 C 1.773438 -13.839844 1.648438 -13.332031 1.550781 -12.824219 C 1.425781 -12.191406 1.425781 -11.558594 1.425781 -10.925781 C 1.425781 -10.386719 1.550781 -9.878906 1.582031 -9.339844 C 1.613281 -8.707031 2.34375 -6.207031 2.5 -5.890625 C 2.976562 -4.84375 4.242188 -2.882812 4.875 -2.535156 C 5.351562 -2.25 5.761719 -1.867188 6.238281 -1.613281 C 7.441406 -0.949219 8.644531 -0.378906 9.976562 -0.0625 C 11.082031 0.191406 12.222656 0.441406 13.425781 0.410156 C 14.3125 0.410156 15.199219 0.539062 16.085938 0.476562 C 17.289062 0.347656 18.460938 0.191406 19.601562 -0.191406 C 20.742188 -0.570312 21.851562 -1.078125 22.925781 -1.582031 C 23.527344 -1.867188 24.035156 -2.25 24.605469 -2.566406 C 25.113281 -2.851562 25.144531 -3.261719 24.828125 -3.703125 C 24.511719 -4.085938 24.257812 -4.496094 23.941406 -4.84375 C 23.71875 -5.128906 23.558594 -5.445312 23.339844 -5.699219 C 23.179688 -5.730469 23.023438 -5.667969 22.832031 -5.574219 C 22.324219 -5.160156 21.816406 -4.75 21.214844 -4.464844 C 20.140625 -3.925781 19 -3.546875 17.859375 -3.292969 C 17.480469 -3.199219 17.066406 -3.167969 16.75 -3.199219 C 16.085938 -3.292969 15.421875 -3.292969 14.757812 -3.484375 C 13.964844 -3.703125 13.300781 -4.085938 12.601562 -4.496094 C 12.382812 -4.625 12.160156 -4.78125 12 -5.003906 C 11.242188 -5.953125 10.640625 -6.808594 10.355469 -8.203125 C 10.226562 -8.835938 9.910156 -9.40625 10.101562 -12.222656 C 10.226562 -13.171875 10.546875 -14.25 10.894531 -15.136719 C 11.179688 -15.800781 11.558594 -16.402344 12.035156 -16.941406 C 12.414062 -17.351562 12.667969 -17.859375 13.171875 -18.175781 C 13.617188 -18.460938 14.089844 -18.714844 14.597656 -18.875 C 15.105469 -19.03125 15.515625 -19.160156 16.148438 -19.160156 C 16.847656 -19.160156 17.480469 -18.9375 18.144531 -18.746094 C 19.222656 -18.460938 19.949219 -17.859375 20.363281 -16.816406 C 20.613281 -16.179688 20.648438 -16.148438 21.3125 -16.179688 C 21.4375 -16.214844 21.753906 -16.214844 21.851562 -16.214844 C 22.515625 -16.214844 22.988281 -16.117188 23.65625 -16.148438 C 23.910156 -16.148438 24.289062 -16.085938 24.382812 -16.148438 C 24.511719 -16.214844 24.320312 -16.6875 24.289062 -16.878906 C 24.191406 -17.449219 23.941406 -17.921875 23.75 -18.429688 C 23.65625 -18.714844 23.496094 -18.9375 23.339844 -19.191406 C 22.546875 -20.296875 21.375 -20.929688 20.203125 -21.535156 C 18.683594 -22.292969 17.003906 -22.484375 15.296875 -22.515625 C 14.945312 -22.546875 14.597656 -22.578125 14.25 -22.578125 Z M 14.25 -22.578125 "/></g></g></g><g fill="#575756" fill-opacity="1"><g transform="translate(91.672323, 260.814173)"><g><path d="M 15.328125 -22.417969 C 14.441406 -22.417969 13.554688 -22.355469 12.699219 -22.355469 C 11.90625 -22.355469 11.148438 -22.324219 10.355469 -22.417969 C 10.007812 -22.453125 9.660156 -22.386719 9.339844 -22.355469 C 8.835938 -21.214844 8.519531 -20.078125 8.042969 -19 C 7.535156 -17.828125 7.25 -16.59375 6.648438 -15.453125 C 6.207031 -14.628906 6.078125 -13.679688 5.730469 -12.824219 C 5.476562 -12.253906 5.351562 -11.621094 5.097656 -11.082031 C 4.527344 -9.910156 4.054688 -8.675781 3.546875 -7.472656 C 3.292969 -6.871094 3.136719 -6.269531 2.851562 -5.699219 C 2.40625 -4.875 2.121094 -3.988281 1.835938 -3.136719 C 1.582031 -2.3125 1.171875 -1.550781 0.855469 -0.761719 C 0.726562 -0.410156 0.792969 -0.222656 0.917969 0 C 1.898438 -0.03125 2.851562 -0.09375 3.957031 -0.0625 C 4.273438 -0.570312 4.433594 -1.328125 4.75 -1.996094 C 5.097656 -2.722656 5.351562 -3.453125 5.667969 -4.242188 C 8.390625 -4.085938 11.113281 -4.464844 13.871094 -4.210938 C 14.375 -2.785156 14.976562 -1.363281 15.453125 0.0625 C 15.738281 0.191406 15.992188 0 16.214844 0.03125 C 17.671875 0.0625 19.125 0.03125 20.582031 -0.0625 C 21.5 -0.125 22.417969 0 23.339844 -0.160156 C 23.625 -0.222656 24.003906 -0.03125 24.226562 -0.441406 C 21.183594 -7.632812 18.777344 -15.074219 15.675781 -22.292969 C 15.613281 -22.324219 15.453125 -22.417969 15.328125 -22.417969 Z M 9.941406 -15.296875 C 10.925781 -12.699219 11.75 -10.039062 12.730469 -7.410156 C 10.734375 -7.347656 8.804688 -7.21875 6.871094 -7.347656 C 7.949219 -9.941406 8.707031 -12.699219 9.941406 -15.296875 Z M 9.941406 -15.296875 "/></g></g></g><g fill="#575756" fill-opacity="1"><g transform="translate(116.744076, 260.814173)"><g><path d="M 10.164062 -22.167969 C 9.660156 -22.070312 9.183594 -22.230469 8.707031 -22.167969 C 7.757812 -22.070312 6.777344 -22.007812 5.796875 -22.007812 C 4.910156 -22.039062 4.023438 -21.914062 3.101562 -22.007812 C 2.753906 -22.007812 2.375 -22.070312 2.058594 -21.945312 C 1.804688 -21.753906 2.027344 -19.761719 2.027344 -18.96875 C 2.058594 -18.492188 1.898438 -18.019531 1.898438 -17.511719 C 1.933594 -16.6875 1.933594 -15.863281 2.027344 -15.011719 C 2.152344 -13.554688 1.964844 -12.097656 1.964844 -10.640625 C 1.996094 -9.722656 1.964844 -8.773438 2.027344 -7.851562 C 2.152344 -6.839844 1.996094 -5.828125 2.089844 -4.8125 C 2.214844 -3.484375 2.121094 -2.121094 2.121094 -0.761719 C 2.121094 -0.441406 2.25 -0.160156 2.4375 0.0625 C 3.671875 0.0625 4.910156 0.125 6.113281 0.03125 C 7.632812 -0.0625 9.152344 0 10.671875 -0.03125 C 12.222656 -0.09375 13.773438 -0.03125 15.328125 -0.09375 C 16.433594 -0.160156 17.542969 -0.0625 18.621094 -0.125 C 19.0625 -0.160156 19.476562 0.03125 19.917969 -0.191406 C 20.425781 -0.695312 20.109375 -1.363281 20.203125 -2.089844 L 20.234375 -3.386719 C 20.140625 -3.578125 19.949219 -3.640625 19.761719 -3.609375 C 19.378906 -3.578125 18.96875 -3.515625 18.589844 -3.578125 C 17.890625 -3.671875 17.195312 -3.453125 16.5 -3.484375 C 15.992188 -3.515625 15.453125 -3.515625 14.945312 -3.484375 C 14.28125 -3.453125 13.617188 -3.421875 12.953125 -3.421875 L 10.863281 -3.421875 C 10.417969 -9.59375 10.480469 -15.738281 10.734375 -21.851562 C 10.511719 -22.007812 10.324219 -22.199219 10.164062 -22.167969 Z M 10.164062 -22.167969 "/></g></g></g><g fill="#575756" fill-opacity="1"><g transform="translate(137.922112, 260.814173)"><g><path d="M 10.324219 -22.230469 C 9.722656 -22.136719 9.152344 -22.101562 8.550781 -22.136719 C 7.886719 -22.167969 7.1875 -22.167969 6.492188 -22.136719 C 6.078125 -22.101562 5.667969 -22.101562 5.257812 -22.136719 C 4.75 -22.167969 4.242188 -22.292969 3.738281 -22.167969 C 3.136719 -22.039062 2.535156 -22.167969 1.898438 -22.070312 C 1.898438 -22.039062 1.964844 -20.742188 1.964844 -20.171875 C 1.964844 -19.664062 1.898438 -19.160156 1.933594 -18.652344 C 1.933594 -18.144531 2.027344 -17.671875 2.058594 -17.164062 C 2.121094 -16.464844 2.058594 -15.738281 2.058594 -15.011719 C 2.089844 -14.027344 2.058594 -13.046875 2.058594 -12.066406 C 2.058594 -11.242188 1.996094 -10.449219 2.027344 -9.660156 C 2.058594 -8.203125 1.996094 -6.746094 1.964844 -5.289062 C 1.933594 -4.496094 1.964844 -3.703125 2.027344 -2.882812 C 2.089844 -2.152344 1.996094 -1.394531 1.933594 -0.632812 C 1.933594 -0.347656 1.996094 -0.125 2.25 0.03125 C 3.199219 -0.125 4.148438 -0.0625 5.097656 -0.03125 C 5.730469 0 6.332031 0.09375 6.964844 0.0625 C 8.171875 0.03125 9.375 -0.160156 10.609375 -0.160156 C 10.894531 -0.160156 11.082031 -0.410156 10.988281 -0.695312 C 10.957031 -0.824219 10.925781 -0.949219 10.925781 -1.078125 C 10.925781 -2.121094 10.957031 -3.167969 10.925781 -4.179688 C 10.925781 -5.128906 10.957031 -6.078125 10.894531 -7.03125 C 10.796875 -8.390625 10.894531 -9.753906 10.925781 -11.113281 C 10.925781 -12.253906 10.957031 -13.394531 10.925781 -14.535156 C 10.894531 -15.230469 10.957031 -15.929688 10.925781 -16.625 C 10.894531 -17.828125 11.019531 -19.0625 10.957031 -20.265625 C 10.925781 -20.710938 10.925781 -21.183594 10.957031 -21.628906 C 10.988281 -22.136719 10.796875 -22.261719 10.324219 -22.230469 Z M 10.324219 -22.230469 "/></g></g></g><g fill="#575756" fill-opacity="1"><g transform="translate(150.894475, 260.814173)"><g/></g></g><g fill="#575756" fill-opacity="1"><g transform="translate(159.441659, 260.814173)"><g/></g></g><g fill="#575756" fill-opacity="1"><g transform="translate(167.988844, 260.814173)"><g/></g></g><g fill="#575756" fill-opacity="1"><g transform="translate(176.536028, 260.814173)"><g/></g></g><g fill="#575756" fill-opacity="1"><g transform="translate(185.083212, 260.814173)"><g/></g></g><g fill="#575756" fill-opacity="1"><g transform="translate(193.627872, 260.814173)"><g><path d="M 14.25 -22.578125 C 13.648438 -22.578125 13.046875 -22.453125 12.445312 -22.417969 C 11.527344 -22.355469 10.609375 -22.101562 9.722656 -21.816406 C 8.359375 -21.4375 7.09375 -20.804688 5.921875 -20.046875 C 5.605469 -19.824219 5.257812 -19.664062 5.035156 -19.378906 C 4.589844 -18.875 4.117188 -18.429688 3.738281 -17.859375 C 3.167969 -17.035156 2.597656 -16.214844 2.183594 -15.261719 C 2.058594 -14.976562 1.898438 -14.660156 1.835938 -14.34375 C 1.773438 -13.839844 1.648438 -13.332031 1.550781 -12.824219 C 1.425781 -12.191406 1.425781 -11.558594 1.425781 -10.925781 C 1.425781 -10.386719 1.550781 -9.878906 1.582031 -9.339844 C 1.613281 -8.707031 2.34375 -6.207031 2.5 -5.890625 C 2.976562 -4.84375 4.242188 -2.882812 4.875 -2.535156 C 5.351562 -2.25 5.761719 -1.867188 6.238281 -1.613281 C 7.441406 -0.949219 8.644531 -0.378906 9.976562 -0.0625 C 11.082031 0.191406 12.222656 0.441406 13.425781 0.410156 C 14.3125 0.410156 15.199219 0.539062 16.085938 0.476562 C 17.289062 0.347656 18.460938 0.191406 19.601562 -0.191406 C 20.742188 -0.570312 21.851562 -1.078125 22.925781 -1.582031 C 23.527344 -1.867188 24.035156 -2.25 24.605469 -2.566406 C 25.113281 -2.851562 25.144531 -3.261719 24.828125 -3.703125 C 24.511719 -4.085938 24.257812 -4.496094 23.941406 -4.84375 C 23.71875 -5.128906 23.558594 -5.445312 23.339844 -5.699219 C 23.179688 -5.730469 23.023438 -5.667969 22.832031 -5.574219 C 22.324219 -5.160156 21.816406 -4.75 21.214844 -4.464844 C 20.140625 -3.925781 19 -3.546875 17.859375 -3.292969 C 17.480469 -3.199219 17.066406 -3.167969 16.75 -3.199219 C 16.085938 -3.292969 15.421875 -3.292969 14.757812 -3.484375 C 13.964844 -3.703125 13.300781 -4.085938 12.601562 -4.496094 C 12.382812 -4.625 12.160156 -4.78125 12 -5.003906 C 11.242188 -5.953125 10.640625 -6.808594 10.355469 -8.203125 C 10.226562 -8.835938 9.910156 -9.40625 10.101562 -12.222656 C 10.226562 -13.171875 10.546875 -14.25 10.894531 -15.136719 C 11.179688 -15.800781 11.558594 -16.402344 12.035156 -16.941406 C 12.414062 -17.351562 12.667969 -17.859375 13.171875 -18.175781 C 13.617188 -18.460938 14.089844 -18.714844 14.597656 -18.875 C 15.105469 -19.03125 15.515625 -19.160156 16.148438 -19.160156 C 16.847656 -19.160156 17.480469 -18.9375 18.144531 -18.746094 C 19.222656 -18.460938 19.949219 -17.859375 20.363281 -16.816406 C 20.613281 -16.179688 20.648438 -16.148438 21.3125 -16.179688 C 21.4375 -16.214844 21.753906 -16.214844 21.851562 -16.214844 C 22.515625 -16.214844 22.988281 -16.117188 23.65625 -16.148438 C 23.910156 -16.148438 24.289062 -16.085938 24.382812 -16.148438 C 24.511719 -16.214844 24.320312 -16.6875 24.289062 -16.878906 C 24.191406 -17.449219 23.941406 -17.921875 23.75 -18.429688 C 23.65625 -18.714844 23.496094 -18.9375 23.339844 -19.191406 C 22.546875 -20.296875 21.375 -20.929688 20.203125 -21.535156 C 18.683594 -22.292969 17.003906 -22.484375 15.296875 -22.515625 C 14.945312 -22.546875 14.597656 -22.578125 14.25 -22.578125 Z M 14.25 -22.578125 "/></g></g></g><g fill="#575756" fill-opacity="1"><g transform="translate(220.060841, 260.814173)"><g><path d="M 5.066406 -22.136719 C 4.085938 -22.136719 3.136719 -22.007812 2.152344 -21.976562 C 1.804688 -21.976562 1.933594 -21.152344 1.933594 -20.898438 C 1.898438 -20.109375 1.996094 -19.316406 1.933594 -18.492188 C 1.867188 -17.671875 1.933594 -16.847656 1.933594 -15.011719 C 2.058594 -14.21875 1.898438 -13.457031 1.964844 -12.667969 C 2.089844 -11.429688 1.933594 -10.195312 1.964844 -8.929688 C 2.027344 -7.820312 1.964844 -6.714844 2.027344 -5.605469 C 2.027344 -5.226562 2.089844 -4.8125 2.027344 -4.433594 C 1.996094 -4.054688 1.996094 -3.671875 2.027344 -3.292969 C 2.121094 -2.40625 1.964844 -1.550781 1.996094 -0.695312 C 2.027344 -0.191406 1.933594 -0.03125 2.34375 0.160156 C 2.40625 0.125 2.597656 0.09375 2.660156 0.09375 C 5.257812 0.0625 7.886719 -0.09375 10.511719 -0.03125 C 10.703125 -0.03125 10.734375 -0.253906 10.765625 -0.316406 C 10.546875 -3.261719 10.640625 -6.144531 10.703125 -9.023438 C 10.925781 -9.121094 15.453125 -9.152344 15.613281 -9.089844 C 15.613281 -8.867188 15.578125 -8.613281 15.613281 -8.359375 C 15.738281 -7.378906 15.707031 -6.429688 15.675781 -5.414062 C 15.644531 -4.6875 15.578125 -3.925781 15.613281 -3.199219 C 15.644531 -2.28125 15.515625 -1.363281 15.613281 -0.476562 C 15.675781 -0.125 15.800781 0.09375 16.117188 0 C 16.625 -0.09375 17.164062 -0.03125 17.671875 0 C 18.554688 0 19.441406 -0.09375 20.296875 0 C 21.058594 0.09375 21.816406 -0.0625 22.578125 -0.03125 C 23.085938 0 23.589844 -0.03125 24.128906 -0.0625 C 24.160156 -0.222656 24.289062 -0.410156 24.257812 -0.539062 C 24.160156 -1.328125 24.160156 -2.089844 24.160156 -2.882812 C 24.191406 -3.800781 24.160156 -4.71875 24.226562 -5.636719 C 24.257812 -6.933594 24.289062 -8.203125 24.289062 -9.5 C 24.320312 -10.039062 24.160156 -10.546875 24.160156 -11.082031 C 24.191406 -11.78125 24.257812 -12.507812 24.226562 -13.238281 C 24.128906 -14.691406 24.289062 -16.117188 24.160156 -17.574219 C 24.066406 -18.523438 24.257812 -19.507812 24.191406 -20.457031 C 24.160156 -20.929688 24.289062 -21.40625 24.191406 -21.882812 C 23.875 -22.101562 23.527344 -22.167969 23.179688 -22.101562 C 22.640625 -22.007812 22.101562 -22.101562 21.535156 -22.070312 C 20.996094 -22.039062 20.425781 -22.101562 19.886719 -22.039062 C 19.253906 -21.976562 18.621094 -22.007812 18.019531 -21.914062 C 17.226562 -21.816406 16.464844 -22.136719 15.613281 -21.882812 C 15.515625 -18.808594 15.769531 -15.769531 15.546875 -12.699219 C 15.421875 -12.699219 15.296875 -12.730469 15.199219 -12.730469 C 14.628906 -12.667969 14.089844 -12.636719 13.554688 -12.601562 L 12.191406 -12.601562 C 11.652344 -12.539062 11.335938 -12.667969 10.796875 -12.601562 C 10.828125 -12.824219 10.828125 -13.015625 10.828125 -13.203125 C 10.796875 -14.089844 10.765625 -14.945312 10.765625 -15.832031 C 10.765625 -15.992188 10.734375 -16.179688 10.734375 -16.339844 C 10.703125 -16.972656 10.578125 -17.605469 10.640625 -18.238281 C 10.734375 -19.160156 10.765625 -20.078125 10.734375 -20.996094 C 10.703125 -21.34375 10.734375 -21.722656 10.511719 -22.007812 C 10.417969 -22.101562 10.292969 -22.070312 10.164062 -22.070312 L 7.726562 -22.070312 C 6.839844 -22.070312 5.953125 -22.136719 5.066406 -22.136719 Z M 5.066406 -22.136719 "/></g></g></g><g fill="#575756" fill-opacity="1"><g transform="translate(246.303876, 260.814173)"><g><path d="M 10.324219 -22.230469 C 9.722656 -22.136719 9.152344 -22.101562 8.550781 -22.136719 C 7.886719 -22.167969 7.1875 -22.167969 6.492188 -22.136719 C 6.078125 -22.101562 5.667969 -22.101562 5.257812 -22.136719 C 4.75 -22.167969 4.242188 -22.292969 3.738281 -22.167969 C 3.136719 -22.039062 2.535156 -22.167969 1.898438 -22.070312 C 1.898438 -22.039062 1.964844 -20.742188 1.964844 -20.171875 C 1.964844 -19.664062 1.898438 -19.160156 1.933594 -18.652344 C 1.933594 -18.144531 2.027344 -17.671875 2.058594 -17.164062 C 2.121094 -16.464844 2.058594 -15.738281 2.058594 -15.011719 C 2.089844 -14.027344 2.058594 -13.046875 2.058594 -12.066406 C 2.058594 -11.242188 1.996094 -10.449219 2.027344 -9.660156 C 2.058594 -8.203125 1.996094 -6.746094 1.964844 -5.289062 C 1.933594 -4.496094 1.964844 -3.703125 2.027344 -2.882812 C 2.089844 -2.152344 1.996094 -1.394531 1.933594 -0.632812 C 1.933594 -0.347656 1.996094 -0.125 2.25 0.03125 C 3.199219 -0.125 4.148438 -0.0625 5.097656 -0.03125 C 5.730469 0 6.332031 0.09375 6.964844 0.0625 C 8.171875 0.03125 9.375 -0.160156 10.609375 -0.160156 C 10.894531 -0.160156 11.082031 -0.410156 10.988281 -0.695312 C 10.957031 -0.824219 10.925781 -0.949219 10.925781 -1.078125 C 10.925781 -2.121094 10.957031 -3.167969 10.925781 -4.179688 C 10.925781 -5.128906 10.957031 -6.078125 10.894531 -7.03125 C 10.796875 -8.390625 10.894531 -9.753906 10.925781 -11.113281 C 10.925781 -12.253906 10.957031 -13.394531 10.925781 -14.535156 C 10.894531 -15.230469 10.957031 -15.929688 10.925781 -16.625 C 10.894531 -17.828125 11.019531 -19.0625 10.957031 -20.265625 C 10.925781 -20.710938 10.925781 -21.183594 10.957031 -21.628906 C 10.988281 -22.136719 10.796875 -22.261719 10.324219 -22.230469 Z M 10.324219 -22.230469 "/></g></g></g><g fill="#575756" fill-opacity="1"><g transform="translate(259.282944, 260.814173)"><g><path d="M 10.164062 -22.167969 C 9.660156 -22.070312 9.183594 -22.230469 8.707031 -22.167969 C 7.757812 -22.070312 6.777344 -22.007812 5.796875 -22.007812 C 4.910156 -22.039062 4.023438 -21.914062 3.101562 -22.007812 C 2.753906 -22.007812 2.375 -22.070312 2.058594 -21.945312 C 1.804688 -21.753906 2.027344 -19.761719 2.027344 -18.96875 C 2.058594 -18.492188 1.898438 -18.019531 1.898438 -17.511719 C 1.933594 -16.6875 1.933594 -15.863281 2.027344 -15.011719 C 2.152344 -13.554688 1.964844 -12.097656 1.964844 -10.640625 C 1.996094 -9.722656 1.964844 -8.773438 2.027344 -7.851562 C 2.152344 -6.839844 1.996094 -5.828125 2.089844 -4.8125 C 2.214844 -3.484375 2.121094 -2.121094 2.121094 -0.761719 C 2.121094 -0.441406 2.25 -0.160156 2.4375 0.0625 C 3.671875 0.0625 4.910156 0.125 6.113281 0.03125 C 7.632812 -0.0625 9.152344 0 10.671875 -0.03125 C 12.222656 -0.09375 13.773438 -0.03125 15.328125 -0.09375 C 16.433594 -0.160156 17.542969 -0.0625 18.621094 -0.125 C 19.0625 -0.160156 19.476562 0.03125 19.917969 -0.191406 C 20.425781 -0.695312 20.109375 -1.363281 20.203125 -2.089844 L 20.234375 -3.386719 C 20.140625 -3.578125 19.949219 -3.640625 19.761719 -3.609375 C 19.378906 -3.578125 18.96875 -3.515625 18.589844 -3.578125 C 17.890625 -3.671875 17.195312 -3.453125 16.5 -3.484375 C 15.992188 -3.515625 15.453125 -3.515625 14.945312 -3.484375 C 14.28125 -3.453125 13.617188 -3.421875 12.953125 -3.421875 L 10.863281 -3.421875 C 10.417969 -9.59375 10.480469 -15.738281 10.734375 -21.851562 C 10.511719 -22.007812 10.324219 -22.199219 10.164062 -22.167969 Z M 10.164062 -22.167969 "/></g></g></g><g fill="#575756" fill-opacity="1"><g transform="translate(280.46098, 260.814173)"><g><path d="M 20.363281 -22.167969 L 20.109375 -22.167969 C 19.09375 -22.167969 18.082031 -22.230469 17.101562 -22.136719 C 16.085938 -22.039062 15.074219 -22.167969 14.089844 -22.101562 C 13.078125 -22.007812 12.035156 -22.136719 11.019531 -22.070312 C 10.324219 -22.039062 9.59375 -22.070312 8.898438 -22.039062 C 6.902344 -21.945312 4.910156 -22.101562 2.914062 -22.007812 C 2.628906 -22.007812 2.46875 -22.070312 2.183594 -21.976562 C 2.121094 -21.882812 1.964844 -21.851562 1.898438 -21.785156 C 1.933594 -21.375 2.058594 -19.03125 1.996094 -16.054688 C 1.933594 -15.167969 1.933594 -14.28125 1.898438 -13.394531 C 1.898438 -12.507812 1.933594 -11.589844 1.933594 -10.703125 C 1.933594 -9.847656 1.996094 -9.023438 2.058594 -8.171875 C 2.121094 -7.632812 2.089844 -7.09375 2.089844 -6.554688 C 2.089844 -5.890625 2.121094 -5.191406 2.058594 -4.558594 C 1.996094 -3.894531 1.996094 -3.292969 2.058594 -2.660156 C 2.121094 -1.773438 2.152344 -0.855469 2.089844 0.03125 C 2.089844 0.160156 2.945312 0.03125 3.230469 0.03125 C 4.054688 0.03125 4.84375 0.09375 5.636719 0.160156 C 6.332031 0.191406 8.960938 0.03125 9.339844 0.03125 C 11.113281 0.03125 12.886719 0.0625 14.628906 0 C 15.992188 -0.03125 17.351562 -0.125 18.714844 -0.03125 C 19.792969 0.03125 20.835938 -0.160156 21.914062 -0.125 C 22.355469 -0.09375 22.578125 -0.347656 22.546875 -0.792969 L 22.546875 -3.167969 C 21.882812 -3.515625 21.25 -3.199219 20.613281 -3.199219 C 19.570312 -3.199219 18.492188 -3.230469 17.449219 -3.101562 C 16.941406 -3.070312 16.402344 -3.167969 15.929688 -3.070312 C 15.105469 -2.945312 14.3125 -2.976562 13.488281 -2.914062 C 12.855469 -2.882812 12.160156 -2.914062 11.496094 -2.945312 C 11.210938 -2.976562 10.894531 -2.851562 10.640625 -3.039062 C 10.546875 -5.226562 10.355469 -7.410156 10.511719 -9.625 L 12.855469 -9.625 C 13.300781 -9.625 13.742188 -9.625 14.1875 -9.660156 C 15.328125 -9.691406 16.433594 -9.753906 17.574219 -9.753906 C 18.175781 -9.753906 18.777344 -9.785156 19.378906 -9.785156 C 19.695312 -9.785156 19.886719 -10.039062 19.886719 -10.355469 C 19.855469 -11.050781 19.824219 -11.75 19.855469 -12.476562 C 19.886719 -12.921875 19.632812 -13.171875 19.191406 -13.203125 C 18.652344 -13.238281 18.113281 -13.203125 17.574219 -13.171875 C 16.464844 -13.140625 15.359375 -13.046875 14.25 -13.046875 C 13.742188 -13.078125 13.238281 -13.109375 12.730469 -13.015625 C 12 -12.921875 11.304688 -13.140625 10.578125 -13.046875 C 10.355469 -14.976562 10.578125 -17.066406 10.511719 -18.96875 C 14.089844 -19.285156 17.703125 -19.0625 21.28125 -19.125 C 21.3125 -19.285156 21.375 -19.441406 21.34375 -19.601562 C 21.28125 -20.171875 21.214844 -20.742188 21.3125 -21.34375 C 21.375 -21.945312 20.996094 -22.230469 20.363281 -22.167969 Z M 20.363281 -22.167969 "/></g></g></g><g fill="#575756" fill-opacity="1"><g transform="translate(303.936881, 260.814173)"><g/></g></g><g mask="url(#6325c5311f)"><g transform="matrix(1, 0, 0, 1, 146, 160)"><g clip-path="url(#03e1a44f1e)"><g fill="#d9d9d9" fill-opacity="1"><g transform="translate(0.740539, 119.572563)"><g><path d="M 3.15625 -4.3125 C 3.15625 -8.445312 3.800781 -12.269531 5.09375 -15.78125 C 6.394531 -19.289062 7.992188 -22.445312 9.890625 -25.25 C 11.785156 -28.050781 14.273438 -31.347656 17.359375 -35.140625 C 20.515625 -39.066406 23.019531 -42.394531 24.875 -45.125 C 26.738281 -47.863281 28.316406 -51.003906 29.609375 -54.546875 C 30.910156 -58.085938 31.5625 -61.925781 31.5625 -66.0625 C 31.5625 -68.519531 31.207031 -70.429688 30.5 -71.796875 C 29.800781 -73.171875 28.539062 -73.859375 26.71875 -73.859375 C 23.707031 -73.859375 22.203125 -71.15625 22.203125 -65.75 L 22.203125 -54.703125 L 3.15625 -54.703125 L 2.953125 -60.28125 C 2.953125 -67.15625 3.648438 -72.800781 5.046875 -77.21875 C 6.453125 -81.632812 8.90625 -85 12.40625 -87.3125 C 15.914062 -89.632812 20.757812 -90.796875 26.9375 -90.796875 C 34.507812 -90.796875 40.363281 -88.671875 44.5 -84.421875 C 48.632812 -80.179688 50.703125 -74.171875 50.703125 -66.390625 C 50.703125 -61.398438 50.019531 -56.890625 48.65625 -52.859375 C 47.289062 -48.828125 45.609375 -45.300781 43.609375 -42.28125 C 41.609375 -39.269531 38.957031 -35.734375 35.65625 -31.671875 C 33.28125 -28.796875 31.300781 -26.234375 29.71875 -23.984375 C 28.144531 -21.742188 26.722656 -19.429688 25.453125 -17.046875 L 50.078125 -17.046875 L 50.078125 0 L 3.15625 0 Z M 3.15625 -4.3125 "/></g></g></g></g></g></g></svg>