<svg xmlns="http://www.w3.org/2000/svg" xmlns:xlink="http://www.w3.org/1999/xlink" width="500" zoomAndPan="magnify" viewBox="0 0 375 374.999991" height="500" preserveAspectRatio="xMidYMid meet" version="1.0"><defs><filter x="0%" y="0%" width="100%" height="100%" id="d35df8f269"><feColorMatrix values="0 0 0 0 1 0 0 0 0 1 0 0 0 0 1 0 0 0 1 0" color-interpolation-filters="sRGB"/></filter><g/><clipPath id="bc7bf63e5f"><path d="M 52.234375 70.199219 L 337.234375 70.199219 L 337.234375 229.199219 L 52.234375 229.199219 Z M 52.234375 70.199219 " clip-rule="nonzero"/></clipPath><mask id="55f002301f"><g filter="url(#d35df8f269)"><rect x="-37.5" width="450" fill="#000000" y="-37.499999" height="449.999989" fill-opacity="0.5098"/></g></mask><clipPath id="8085b5176f"><path d="M 0.15625 7.773438 L 176.40625 7.773438 L 176.40625 176.523438 L 0.15625 176.523438 Z M 0.15625 7.773438 " clip-rule="nonzero"/></clipPath><clipPath id="f8e804069b"><rect x="0" width="177" y="0" height="177"/></clipPath></defs><g clip-path="url(#bc7bf63e5f)"><path fill="#625141" d="M 321.859375 117.035156 C 321.390625 116.425781 321.105469 115.351562 321.289062 114.636719 C 321.832031 112.59375 321.214844 110.925781 320.039062 109.382812 C 317.710938 106.328125 315.335938 103.304688 312.945312 100.296875 C 310.964844 97.800781 308.933594 95.339844 306.914062 92.878906 C 305.535156 91.203125 304.660156 89.347656 304.277344 87.175781 C 303.65625 83.625 302.109375 82.964844 298.980469 84.84375 C 296.53125 86.304688 294.003906 87.394531 291.089844 86.835938 C 287.722656 86.191406 284.367188 85.445312 281.007812 84.742188 C 277.160156 83.933594 273.328125 83.011719 269.453125 82.367188 C 267.84375 82.097656 266.132812 82.335938 264.476562 82.480469 C 262.152344 82.683594 260.03125 82.183594 258.207031 80.761719 C 255.496094 78.648438 252.832031 76.472656 250.203125 74.257812 C 248.210938 72.574219 246.0625 71.214844 243.601562 70.328125 L 236.261719 70.328125 C 231.796875 71.179688 227.699219 73.226562 223.398438 74.59375 C 222.894531 74.753906 222.15625 75.078125 222.058594 75.464844 C 221.714844 76.8125 220.734375 76.71875 219.792969 76.65625 C 213.183594 76.214844 206.570312 75.871094 199.976562 75.25 C 187.191406 74.050781 174.417969 72.707031 161.640625 71.378906 C 159.140625 71.121094 156.675781 70.503906 154.175781 70.359375 C 152.824219 70.28125 151.445312 70.949219 150.0625 71.117188 C 143.636719 71.917969 137.207031 72.75 131.070312 74.925781 C 123.84375 77.488281 117.539062 81.738281 111.367188 86.167969 C 108.867188 87.964844 106.339844 89.792969 104.128906 91.925781 C 102.152344 93.828125 100.226562 95.964844 98.925781 98.351562 C 96.503906 102.808594 93.5 106.730469 89.996094 110.359375 C 87.578125 112.867188 85.316406 115.539062 83.183594 118.300781 C 79.554688 122.996094 77.875 128.558594 77.207031 134.324219 C 75.585938 148.285156 70.195312 160.941406 64.324219 173.476562 C 60.613281 181.402344 57.019531 189.375 53.425781 197.347656 C 52.980469 198.335938 52.617188 199.363281 52.261719 200.410156 L 52.261719 209.425781 C 53.625 213.660156 55.984375 217.410156 58.324219 221.171875 C 59.59375 223.214844 61.621094 223.960938 63.820312 224.265625 C 69.957031 225.113281 76.121094 225.257812 82.289062 224.648438 C 86.28125 224.25 87.171875 222.199219 85.0625 218.742188 C 84.042969 217.074219 82.621094 216.25 80.710938 216.179688 C 80.105469 216.160156 79.484375 216.214844 78.894531 216.101562 C 78.082031 215.949219 76.714844 215.824219 76.601562 215.410156 C 76.261719 214.175781 75.113281 212.875 76.390625 211.480469 C 77.921875 209.800781 79.265625 207.9375 80.875 206.34375 C 89.761719 197.546875 98.734375 188.84375 107.59375 180.027344 C 109.625 178.003906 111.414062 175.722656 113.179688 173.453125 C 114.636719 171.566406 115.773438 170.953125 117.816406 172.226562 C 120.539062 173.929688 123.082031 175.953125 125.558594 178.011719 C 134.664062 185.570312 139.84375 195.808594 144.816406 206.226562 C 147.273438 211.371094 150.0625 216.375 152.984375 221.269531 C 155.519531 225.507812 159.304688 227.59375 164.492188 227.503906 C 168.246094 227.441406 172.019531 228.292969 175.78125 228.753906 C 176.671875 228.859375 177.546875 229.042969 178.425781 229.183594 L 192.09375 229.183594 C 193.109375 228.75 194.191406 228.429688 195.117188 227.855469 C 196.992188 226.695312 197.003906 224.789062 195.15625 223.589844 C 194.109375 222.90625 192.933594 222.40625 191.800781 221.851562 C 189.710938 220.835938 187.589844 219.886719 185.519531 218.828125 C 182.789062 217.433594 181.023438 215.105469 180.945312 212.109375 C 180.660156 201.199219 177.277344 190.9375 174.648438 180.515625 C 174.265625 178.996094 173.882812 177.472656 173.496094 175.957031 C 173.039062 174.195312 173.386719 173.660156 175.253906 173.511719 C 176.664062 173.398438 178.082031 173.390625 179.5 173.367188 C 181.378906 173.339844 183.070312 172.792969 184.59375 171.675781 C 186.183594 170.507812 187.78125 169.351562 189.402344 168.234375 C 190.066406 167.777344 190.773438 167.355469 191.519531 167.050781 C 192.773438 166.539062 193.542969 166.960938 193.589844 168.328125 C 193.652344 170.089844 193.625 171.878906 193.386719 173.625 C 192.71875 178.632812 191.855469 183.613281 191.191406 188.625 C 190.261719 195.621094 191.59375 202.445312 193.132812 209.203125 C 194.042969 213.179688 195.554688 217.042969 198.667969 219.820312 C 200.59375 221.53125 202.902344 222.980469 205.28125 223.980469 C 211.605469 226.636719 218.265625 228.117188 225.117188 228.648438 C 225.21875 228.65625 225.316406 228.675781 225.417969 228.679688 C 227.421875 228.746094 229.558594 228.890625 230.5625 226.691406 C 231.628906 224.359375 231.320312 221.960938 229.742188 219.96875 C 229.160156 219.230469 227.976562 218.855469 226.992188 218.578125 C 224.859375 217.972656 222.65625 217.609375 220.519531 217.003906 C 218.351562 216.386719 217.332031 214.785156 217.3125 212.566406 C 217.242188 205.859375 218.628906 199.414062 220.832031 193.117188 C 220.882812 192.976562 220.933594 192.832031 220.996094 192.691406 C 222.207031 190.109375 223.046875 189.851562 224.855469 192.058594 C 228.832031 196.890625 234.371094 198.863281 239.933594 200.9375 C 245.425781 202.980469 250.855469 205.175781 256.28125 207.382812 C 257.335938 207.8125 258.300781 208.535156 259.203125 209.253906 C 260.355469 210.167969 260.492188 211.363281 259.777344 212.644531 C 259.535156 213.085938 259.335938 213.574219 259.007812 213.949219 C 255.515625 217.949219 256.730469 222.382812 257.929688 226.742188 C 258.449219 228.640625 259.628906 229.074219 261.804688 228.515625 C 265.078125 227.671875 267.835938 225.890625 270.078125 223.402344 C 271.175781 222.179688 272.183594 220.773438 272.863281 219.285156 C 275.328125 213.902344 276.566406 208.199219 277.132812 202.3125 C 277.75 195.933594 275.347656 190.992188 270.351562 187.136719 C 268.269531 185.53125 266.367188 183.691406 264.261719 182.117188 C 259.21875 178.355469 258.03125 173.261719 259.082031 167.40625 C 259.898438 162.832031 260.804688 158.269531 261.765625 153.722656 C 263.128906 147.246094 265.867188 144.742188 272.660156 143.828125 C 280.671875 142.753906 288.714844 142.898438 296.734375 143.679688 C 302.871094 144.273438 308.980469 145.109375 315.101562 145.847656 C 320.648438 146.515625 325.71875 145.078125 330.519531 142.414062 C 332.769531 141.15625 335.011719 139.886719 337.257812 138.625 L 337.257812 133.460938 C 331.164062 128.886719 326.417969 123.042969 321.859375 117.035156 " fill-opacity="1" fill-rule="nonzero"/></g><g mask="url(#55f002301f)"><g transform="matrix(1, 0, 0, 1, 93, 119)"><g clip-path="url(#f8e804069b)"><g clip-path="url(#8085b5176f)"><path fill="#ff1616" d="M 88.28125 136.902344 L 142.765625 176.523438 L 121.910156 112.542969 L 176.394531 73.804688 L 109.574219 73.804688 L 88.28125 7.773438 L 66.988281 73.804688 L 0.171875 73.804688 L 54.652344 112.542969 L 33.875 176.523438 Z M 88.28125 136.902344 " fill-opacity="1" fill-rule="nonzero"/></g></g></g></g><path stroke-linecap="round" transform="matrix(3.750152, 0, 0, 3.75, 44.866434, 264.652365)" fill="none" stroke-linejoin="miter" d="M 0.500181 -0.00000567231 L 76.298146 -0.00000567231 " stroke="#575756" stroke-width="1" stroke-opacity="1" stroke-miterlimit="4"/><path stroke-linecap="round" transform="matrix(3.74661, 0, 0, 3.75, 44.866434, 227.359365)" fill="none" stroke-linejoin="miter" d="M 0.499611 0.00000264798 L 75.571633 0.00000264798 " stroke="#575756" stroke-width="1" stroke-opacity="1" stroke-miterlimit="4"/><g fill="#575756" fill-opacity="1"><g transform="translate(71.24304, 258.939173)"><g><path d="M 14.25 -22.578125 C 13.648438 -22.578125 13.046875 -22.453125 12.445312 -22.417969 C 11.527344 -22.355469 10.609375 -22.101562 9.722656 -21.816406 C 8.359375 -21.4375 7.09375 -20.804688 5.921875 -20.046875 C 5.605469 -19.824219 5.257812 -19.664062 5.035156 -19.378906 C 4.589844 -18.875 4.117188 -18.429688 3.738281 -17.859375 C 3.167969 -17.035156 2.597656 -16.214844 2.183594 -15.261719 C 2.058594 -14.976562 1.898438 -14.660156 1.835938 -14.34375 C 1.773438 -13.839844 1.648438 -13.332031 1.550781 -12.824219 C 1.425781 -12.191406 1.425781 -11.558594 1.425781 -10.925781 C 1.425781 -10.386719 1.550781 -9.878906 1.582031 -9.339844 C 1.613281 -8.707031 2.34375 -6.207031 2.5 -5.890625 C 2.976562 -4.84375 4.242188 -2.882812 4.875 -2.535156 C 5.351562 -2.25 5.761719 -1.867188 6.238281 -1.613281 C 7.441406 -0.949219 8.644531 -0.378906 9.976562 -0.0625 C 11.082031 0.191406 12.222656 0.441406 13.425781 0.410156 C 14.3125 0.410156 15.199219 0.539062 16.085938 0.476562 C 17.289062 0.347656 18.460938 0.191406 19.601562 -0.191406 C 20.742188 -0.570312 21.851562 -1.078125 22.925781 -1.582031 C 23.527344 -1.867188 24.035156 -2.25 24.605469 -2.566406 C 25.113281 -2.851562 25.144531 -3.261719 24.828125 -3.703125 C 24.511719 -4.085938 24.257812 -4.496094 23.941406 -4.84375 C 23.71875 -5.128906 23.558594 -5.445312 23.339844 -5.699219 C 23.179688 -5.730469 23.023438 -5.667969 22.832031 -5.574219 C 22.324219 -5.160156 21.816406 -4.75 21.214844 -4.464844 C 20.140625 -3.925781 19 -3.546875 17.859375 -3.292969 C 17.480469 -3.199219 17.066406 -3.167969 16.75 -3.199219 C 16.085938 -3.292969 15.421875 -3.292969 14.757812 -3.484375 C 13.964844 -3.703125 13.300781 -4.085938 12.601562 -4.496094 C 12.382812 -4.625 12.160156 -4.78125 12 -5.003906 C 11.242188 -5.953125 10.640625 -6.808594 10.355469 -8.203125 C 10.226562 -8.835938 9.910156 -9.40625 10.101562 -12.222656 C 10.226562 -13.171875 10.546875 -14.25 10.894531 -15.136719 C 11.179688 -15.800781 11.558594 -16.402344 12.035156 -16.941406 C 12.414062 -17.351562 12.667969 -17.859375 13.171875 -18.175781 C 13.617188 -18.460938 14.089844 -18.714844 14.597656 -18.875 C 15.105469 -19.03125 15.515625 -19.160156 16.148438 -19.160156 C 16.847656 -19.160156 17.480469 -18.9375 18.144531 -18.746094 C 19.222656 -18.460938 19.949219 -17.859375 20.363281 -16.816406 C 20.613281 -16.179688 20.648438 -16.148438 21.3125 -16.179688 C 21.4375 -16.214844 21.753906 -16.214844 21.851562 -16.214844 C 22.515625 -16.214844 22.988281 -16.117188 23.65625 -16.148438 C 23.910156 -16.148438 24.289062 -16.085938 24.382812 -16.148438 C 24.511719 -16.214844 24.320312 -16.6875 24.289062 -16.878906 C 24.191406 -17.449219 23.941406 -17.921875 23.75 -18.429688 C 23.65625 -18.714844 23.496094 -18.9375 23.339844 -19.191406 C 22.546875 -20.296875 21.375 -20.929688 20.203125 -21.535156 C 18.683594 -22.292969 17.003906 -22.484375 15.296875 -22.515625 C 14.945312 -22.546875 14.597656 -22.578125 14.25 -22.578125 Z M 14.25 -22.578125 "/></g></g></g><g fill="#575756" fill-opacity="1"><g transform="translate(97.676009, 258.939173)"><g><path d="M 15.328125 -22.417969 C 14.441406 -22.417969 13.554688 -22.355469 12.699219 -22.355469 C 11.90625 -22.355469 11.148438 -22.324219 10.355469 -22.417969 C 10.007812 -22.453125 9.660156 -22.386719 9.339844 -22.355469 C 8.835938 -21.214844 8.519531 -20.078125 8.042969 -19 C 7.535156 -17.828125 7.25 -16.59375 6.648438 -15.453125 C 6.207031 -14.628906 6.078125 -13.679688 5.730469 -12.824219 C 5.476562 -12.253906 5.351562 -11.621094 5.097656 -11.082031 C 4.527344 -9.910156 4.054688 -8.675781 3.546875 -7.472656 C 3.292969 -6.871094 3.136719 -6.269531 2.851562 -5.699219 C 2.40625 -4.875 2.121094 -3.988281 1.835938 -3.136719 C 1.582031 -2.3125 1.171875 -1.550781 0.855469 -0.761719 C 0.726562 -0.410156 0.792969 -0.222656 0.917969 0 C 1.898438 -0.03125 2.851562 -0.09375 3.957031 -0.0625 C 4.273438 -0.570312 4.433594 -1.328125 4.75 -1.996094 C 5.097656 -2.722656 5.351562 -3.453125 5.667969 -4.242188 C 8.390625 -4.085938 11.113281 -4.464844 13.871094 -4.210938 C 14.375 -2.785156 14.976562 -1.363281 15.453125 0.0625 C 15.738281 0.191406 15.992188 0 16.214844 0.03125 C 17.671875 0.0625 19.125 0.03125 20.582031 -0.0625 C 21.5 -0.125 22.417969 0 23.339844 -0.160156 C 23.625 -0.222656 24.003906 -0.03125 24.226562 -0.441406 C 21.183594 -7.632812 18.777344 -15.074219 15.675781 -22.292969 C 15.613281 -22.324219 15.453125 -22.417969 15.328125 -22.417969 Z M 9.941406 -15.296875 C 10.925781 -12.699219 11.75 -10.039062 12.730469 -7.410156 C 10.734375 -7.347656 8.804688 -7.21875 6.871094 -7.347656 C 7.949219 -9.941406 8.707031 -12.699219 9.941406 -15.296875 Z M 9.941406 -15.296875 "/></g></g></g><g fill="#575756" fill-opacity="1"><g transform="translate(122.747762, 258.939173)"><g><path d="M 10.164062 -22.167969 C 9.660156 -22.070312 9.183594 -22.230469 8.707031 -22.167969 C 7.757812 -22.070312 6.777344 -22.007812 5.796875 -22.007812 C 4.910156 -22.039062 4.023438 -21.914062 3.101562 -22.007812 C 2.753906 -22.007812 2.375 -22.070312 2.058594 -21.945312 C 1.804688 -21.753906 2.027344 -19.761719 2.027344 -18.96875 C 2.058594 -18.492188 1.898438 -18.019531 1.898438 -17.511719 C 1.933594 -16.6875 1.933594 -15.863281 2.027344 -15.011719 C 2.152344 -13.554688 1.964844 -12.097656 1.964844 -10.640625 C 1.996094 -9.722656 1.964844 -8.773438 2.027344 -7.851562 C 2.152344 -6.839844 1.996094 -5.828125 2.089844 -4.8125 C 2.214844 -3.484375 2.121094 -2.121094 2.121094 -0.761719 C 2.121094 -0.441406 2.25 -0.160156 2.4375 0.0625 C 3.671875 0.0625 4.910156 0.125 6.113281 0.03125 C 7.632812 -0.0625 9.152344 0 10.671875 -0.03125 C 12.222656 -0.09375 13.773438 -0.03125 15.328125 -0.09375 C 16.433594 -0.160156 17.542969 -0.0625 18.621094 -0.125 C 19.0625 -0.160156 19.476562 0.03125 19.917969 -0.191406 C 20.425781 -0.695312 20.109375 -1.363281 20.203125 -2.089844 L 20.234375 -3.386719 C 20.140625 -3.578125 19.949219 -3.640625 19.761719 -3.609375 C 19.378906 -3.578125 18.96875 -3.515625 18.589844 -3.578125 C 17.890625 -3.671875 17.195312 -3.453125 16.5 -3.484375 C 15.992188 -3.515625 15.453125 -3.515625 14.945312 -3.484375 C 14.28125 -3.453125 13.617188 -3.421875 12.953125 -3.421875 L 10.863281 -3.421875 C 10.417969 -9.59375 10.480469 -15.738281 10.734375 -21.851562 C 10.511719 -22.007812 10.324219 -22.199219 10.164062 -22.167969 Z M 10.164062 -22.167969 "/></g></g></g><g fill="#575756" fill-opacity="1"><g transform="translate(143.925798, 258.939173)"><g><path d="M 10.324219 -22.230469 C 9.722656 -22.136719 9.152344 -22.101562 8.550781 -22.136719 C 7.886719 -22.167969 7.1875 -22.167969 6.492188 -22.136719 C 6.078125 -22.101562 5.667969 -22.101562 5.257812 -22.136719 C 4.75 -22.167969 4.242188 -22.292969 3.738281 -22.167969 C 3.136719 -22.039062 2.535156 -22.167969 1.898438 -22.070312 C 1.898438 -22.039062 1.964844 -20.742188 1.964844 -20.171875 C 1.964844 -19.664062 1.898438 -19.160156 1.933594 -18.652344 C 1.933594 -18.144531 2.027344 -17.671875 2.058594 -17.164062 C 2.121094 -16.464844 2.058594 -15.738281 2.058594 -15.011719 C 2.089844 -14.027344 2.058594 -13.046875 2.058594 -12.066406 C 2.058594 -11.242188 1.996094 -10.449219 2.027344 -9.660156 C 2.058594 -8.203125 1.996094 -6.746094 1.964844 -5.289062 C 1.933594 -4.496094 1.964844 -3.703125 2.027344 -2.882812 C 2.089844 -2.152344 1.996094 -1.394531 1.933594 -0.632812 C 1.933594 -0.347656 1.996094 -0.125 2.25 0.03125 C 3.199219 -0.125 4.148438 -0.0625 5.097656 -0.03125 C 5.730469 0 6.332031 0.09375 6.964844 0.0625 C 8.171875 0.03125 9.375 -0.160156 10.609375 -0.160156 C 10.894531 -0.160156 11.082031 -0.410156 10.988281 -0.695312 C 10.957031 -0.824219 10.925781 -0.949219 10.925781 -1.078125 C 10.925781 -2.121094 10.957031 -3.167969 10.925781 -4.179688 C 10.925781 -5.128906 10.957031 -6.078125 10.894531 -7.03125 C 10.796875 -8.390625 10.894531 -9.753906 10.925781 -11.113281 C 10.925781 -12.253906 10.957031 -13.394531 10.925781 -14.535156 C 10.894531 -15.230469 10.957031 -15.929688 10.925781 -16.625 C 10.894531 -17.828125 11.019531 -19.0625 10.957031 -20.265625 C 10.925781 -20.710938 10.925781 -21.183594 10.957031 -21.628906 C 10.988281 -22.136719 10.796875 -22.261719 10.324219 -22.230469 Z M 10.324219 -22.230469 "/></g></g></g><g fill="#575756" fill-opacity="1"><g transform="translate(156.898161, 258.939173)"><g/></g></g><g fill="#575756" fill-opacity="1"><g transform="translate(165.445345, 258.939173)"><g/></g></g><g fill="#575756" fill-opacity="1"><g transform="translate(173.992529, 258.939173)"><g/></g></g><g fill="#575756" fill-opacity="1"><g transform="translate(182.539714, 258.939173)"><g/></g></g><g fill="#575756" fill-opacity="1"><g transform="translate(191.086898, 258.939173)"><g/></g></g><g fill="#575756" fill-opacity="1"><g transform="translate(199.631557, 258.939173)"><g><path d="M 14.25 -22.578125 C 13.648438 -22.578125 13.046875 -22.453125 12.445312 -22.417969 C 11.527344 -22.355469 10.609375 -22.101562 9.722656 -21.816406 C 8.359375 -21.4375 7.09375 -20.804688 5.921875 -20.046875 C 5.605469 -19.824219 5.257812 -19.664062 5.035156 -19.378906 C 4.589844 -18.875 4.117188 -18.429688 3.738281 -17.859375 C 3.167969 -17.035156 2.597656 -16.214844 2.183594 -15.261719 C 2.058594 -14.976562 1.898438 -14.660156 1.835938 -14.34375 C 1.773438 -13.839844 1.648438 -13.332031 1.550781 -12.824219 C 1.425781 -12.191406 1.425781 -11.558594 1.425781 -10.925781 C 1.425781 -10.386719 1.550781 -9.878906 1.582031 -9.339844 C 1.613281 -8.707031 2.34375 -6.207031 2.5 -5.890625 C 2.976562 -4.84375 4.242188 -2.882812 4.875 -2.535156 C 5.351562 -2.25 5.761719 -1.867188 6.238281 -1.613281 C 7.441406 -0.949219 8.644531 -0.378906 9.976562 -0.0625 C 11.082031 0.191406 12.222656 0.441406 13.425781 0.410156 C 14.3125 0.410156 15.199219 0.539062 16.085938 0.476562 C 17.289062 0.347656 18.460938 0.191406 19.601562 -0.191406 C 20.742188 -0.570312 21.851562 -1.078125 22.925781 -1.582031 C 23.527344 -1.867188 24.035156 -2.25 24.605469 -2.566406 C 25.113281 -2.851562 25.144531 -3.261719 24.828125 -3.703125 C 24.511719 -4.085938 24.257812 -4.496094 23.941406 -4.84375 C 23.71875 -5.128906 23.558594 -5.445312 23.339844 -5.699219 C 23.179688 -5.730469 23.023438 -5.667969 22.832031 -5.574219 C 22.324219 -5.160156 21.816406 -4.75 21.214844 -4.464844 C 20.140625 -3.925781 19 -3.546875 17.859375 -3.292969 C 17.480469 -3.199219 17.066406 -3.167969 16.75 -3.199219 C 16.085938 -3.292969 15.421875 -3.292969 14.757812 -3.484375 C 13.964844 -3.703125 13.300781 -4.085938 12.601562 -4.496094 C 12.382812 -4.625 12.160156 -4.78125 12 -5.003906 C 11.242188 -5.953125 10.640625 -6.808594 10.355469 -8.203125 C 10.226562 -8.835938 9.910156 -9.40625 10.101562 -12.222656 C 10.226562 -13.171875 10.546875 -14.25 10.894531 -15.136719 C 11.179688 -15.800781 11.558594 -16.402344 12.035156 -16.941406 C 12.414062 -17.351562 12.667969 -17.859375 13.171875 -18.175781 C 13.617188 -18.460938 14.089844 -18.714844 14.597656 -18.875 C 15.105469 -19.03125 15.515625 -19.160156 16.148438 -19.160156 C 16.847656 -19.160156 17.480469 -18.9375 18.144531 -18.746094 C 19.222656 -18.460938 19.949219 -17.859375 20.363281 -16.816406 C 20.613281 -16.179688 20.648438 -16.148438 21.3125 -16.179688 C 21.4375 -16.214844 21.753906 -16.214844 21.851562 -16.214844 C 22.515625 -16.214844 22.988281 -16.117188 23.65625 -16.148438 C 23.910156 -16.148438 24.289062 -16.085938 24.382812 -16.148438 C 24.511719 -16.214844 24.320312 -16.6875 24.289062 -16.878906 C 24.191406 -17.449219 23.941406 -17.921875 23.75 -18.429688 C 23.65625 -18.714844 23.496094 -18.9375 23.339844 -19.191406 C 22.546875 -20.296875 21.375 -20.929688 20.203125 -21.535156 C 18.683594 -22.292969 17.003906 -22.484375 15.296875 -22.515625 C 14.945312 -22.546875 14.597656 -22.578125 14.25 -22.578125 Z M 14.25 -22.578125 "/></g></g></g><g fill="#575756" fill-opacity="1"><g transform="translate(226.064527, 258.939173)"><g><path d="M 5.066406 -22.136719 C 4.085938 -22.136719 3.136719 -22.007812 2.152344 -21.976562 C 1.804688 -21.976562 1.933594 -21.152344 1.933594 -20.898438 C 1.898438 -20.109375 1.996094 -19.316406 1.933594 -18.492188 C 1.867188 -17.671875 1.933594 -16.847656 1.933594 -15.011719 C 2.058594 -14.21875 1.898438 -13.457031 1.964844 -12.667969 C 2.089844 -11.429688 1.933594 -10.195312 1.964844 -8.929688 C 2.027344 -7.820312 1.964844 -6.714844 2.027344 -5.605469 C 2.027344 -5.226562 2.089844 -4.8125 2.027344 -4.433594 C 1.996094 -4.054688 1.996094 -3.671875 2.027344 -3.292969 C 2.121094 -2.40625 1.964844 -1.550781 1.996094 -0.695312 C 2.027344 -0.191406 1.933594 -0.03125 2.34375 0.160156 C 2.40625 0.125 2.597656 0.09375 2.660156 0.09375 C 5.257812 0.0625 7.886719 -0.09375 10.511719 -0.03125 C 10.703125 -0.03125 10.734375 -0.253906 10.765625 -0.316406 C 10.546875 -3.261719 10.640625 -6.144531 10.703125 -9.023438 C 10.925781 -9.121094 15.453125 -9.152344 15.613281 -9.089844 C 15.613281 -8.867188 15.578125 -8.613281 15.613281 -8.359375 C 15.738281 -7.378906 15.707031 -6.429688 15.675781 -5.414062 C 15.644531 -4.6875 15.578125 -3.925781 15.613281 -3.199219 C 15.644531 -2.28125 15.515625 -1.363281 15.613281 -0.476562 C 15.675781 -0.125 15.800781 0.09375 16.117188 0 C 16.625 -0.09375 17.164062 -0.03125 17.671875 0 C 18.554688 0 19.441406 -0.09375 20.296875 0 C 21.058594 0.09375 21.816406 -0.0625 22.578125 -0.03125 C 23.085938 0 23.589844 -0.03125 24.128906 -0.0625 C 24.160156 -0.222656 24.289062 -0.410156 24.257812 -0.539062 C 24.160156 -1.328125 24.160156 -2.089844 24.160156 -2.882812 C 24.191406 -3.800781 24.160156 -4.71875 24.226562 -5.636719 C 24.257812 -6.933594 24.289062 -8.203125 24.289062 -9.5 C 24.320312 -10.039062 24.160156 -10.546875 24.160156 -11.082031 C 24.191406 -11.78125 24.257812 -12.507812 24.226562 -13.238281 C 24.128906 -14.691406 24.289062 -16.117188 24.160156 -17.574219 C 24.066406 -18.523438 24.257812 -19.507812 24.191406 -20.457031 C 24.160156 -20.929688 24.289062 -21.40625 24.191406 -21.882812 C 23.875 -22.101562 23.527344 -22.167969 23.179688 -22.101562 C 22.640625 -22.007812 22.101562 -22.101562 21.535156 -22.070312 C 20.996094 -22.039062 20.425781 -22.101562 19.886719 -22.039062 C 19.253906 -21.976562 18.621094 -22.007812 18.019531 -21.914062 C 17.226562 -21.816406 16.464844 -22.136719 15.613281 -21.882812 C 15.515625 -18.808594 15.769531 -15.769531 15.546875 -12.699219 C 15.421875 -12.699219 15.296875 -12.730469 15.199219 -12.730469 C 14.628906 -12.667969 14.089844 -12.636719 13.554688 -12.601562 L 12.191406 -12.601562 C 11.652344 -12.539062 11.335938 -12.667969 10.796875 -12.601562 C 10.828125 -12.824219 10.828125 -13.015625 10.828125 -13.203125 C 10.796875 -14.089844 10.765625 -14.945312 10.765625 -15.832031 C 10.765625 -15.992188 10.734375 -16.179688 10.734375 -16.339844 C 10.703125 -16.972656 10.578125 -17.605469 10.640625 -18.238281 C 10.734375 -19.160156 10.765625 -20.078125 10.734375 -20.996094 C 10.703125 -21.34375 10.734375 -21.722656 10.511719 -22.007812 C 10.417969 -22.101562 10.292969 -22.070312 10.164062 -22.070312 L 7.726562 -22.070312 C 6.839844 -22.070312 5.953125 -22.136719 5.066406 -22.136719 Z M 5.066406 -22.136719 "/></g></g></g><g fill="#575756" fill-opacity="1"><g transform="translate(252.307562, 258.939173)"><g><path d="M 10.324219 -22.230469 C 9.722656 -22.136719 9.152344 -22.101562 8.550781 -22.136719 C 7.886719 -22.167969 7.1875 -22.167969 6.492188 -22.136719 C 6.078125 -22.101562 5.667969 -22.101562 5.257812 -22.136719 C 4.75 -22.167969 4.242188 -22.292969 3.738281 -22.167969 C 3.136719 -22.039062 2.535156 -22.167969 1.898438 -22.070312 C 1.898438 -22.039062 1.964844 -20.742188 1.964844 -20.171875 C 1.964844 -19.664062 1.898438 -19.160156 1.933594 -18.652344 C 1.933594 -18.144531 2.027344 -17.671875 2.058594 -17.164062 C 2.121094 -16.464844 2.058594 -15.738281 2.058594 -15.011719 C 2.089844 -14.027344 2.058594 -13.046875 2.058594 -12.066406 C 2.058594 -11.242188 1.996094 -10.449219 2.027344 -9.660156 C 2.058594 -8.203125 1.996094 -6.746094 1.964844 -5.289062 C 1.933594 -4.496094 1.964844 -3.703125 2.027344 -2.882812 C 2.089844 -2.152344 1.996094 -1.394531 1.933594 -0.632812 C 1.933594 -0.347656 1.996094 -0.125 2.25 0.03125 C 3.199219 -0.125 4.148438 -0.0625 5.097656 -0.03125 C 5.730469 0 6.332031 0.09375 6.964844 0.0625 C 8.171875 0.03125 9.375 -0.160156 10.609375 -0.160156 C 10.894531 -0.160156 11.082031 -0.410156 10.988281 -0.695312 C 10.957031 -0.824219 10.925781 -0.949219 10.925781 -1.078125 C 10.925781 -2.121094 10.957031 -3.167969 10.925781 -4.179688 C 10.925781 -5.128906 10.957031 -6.078125 10.894531 -7.03125 C 10.796875 -8.390625 10.894531 -9.753906 10.925781 -11.113281 C 10.925781 -12.253906 10.957031 -13.394531 10.925781 -14.535156 C 10.894531 -15.230469 10.957031 -15.929688 10.925781 -16.625 C 10.894531 -17.828125 11.019531 -19.0625 10.957031 -20.265625 C 10.925781 -20.710938 10.925781 -21.183594 10.957031 -21.628906 C 10.988281 -22.136719 10.796875 -22.261719 10.324219 -22.230469 Z M 10.324219 -22.230469 "/></g></g></g><g fill="#575756" fill-opacity="1"><g transform="translate(265.28663, 258.939173)"><g><path d="M 10.164062 -22.167969 C 9.660156 -22.070312 9.183594 -22.230469 8.707031 -22.167969 C 7.757812 -22.070312 6.777344 -22.007812 5.796875 -22.007812 C 4.910156 -22.039062 4.023438 -21.914062 3.101562 -22.007812 C 2.753906 -22.007812 2.375 -22.070312 2.058594 -21.945312 C 1.804688 -21.753906 2.027344 -19.761719 2.027344 -18.96875 C 2.058594 -18.492188 1.898438 -18.019531 1.898438 -17.511719 C 1.933594 -16.6875 1.933594 -15.863281 2.027344 -15.011719 C 2.152344 -13.554688 1.964844 -12.097656 1.964844 -10.640625 C 1.996094 -9.722656 1.964844 -8.773438 2.027344 -7.851562 C 2.152344 -6.839844 1.996094 -5.828125 2.089844 -4.8125 C 2.214844 -3.484375 2.121094 -2.121094 2.121094 -0.761719 C 2.121094 -0.441406 2.25 -0.160156 2.4375 0.0625 C 3.671875 0.0625 4.910156 0.125 6.113281 0.03125 C 7.632812 -0.0625 9.152344 0 10.671875 -0.03125 C 12.222656 -0.09375 13.773438 -0.03125 15.328125 -0.09375 C 16.433594 -0.160156 17.542969 -0.0625 18.621094 -0.125 C 19.0625 -0.160156 19.476562 0.03125 19.917969 -0.191406 C 20.425781 -0.695312 20.109375 -1.363281 20.203125 -2.089844 L 20.234375 -3.386719 C 20.140625 -3.578125 19.949219 -3.640625 19.761719 -3.609375 C 19.378906 -3.578125 18.96875 -3.515625 18.589844 -3.578125 C 17.890625 -3.671875 17.195312 -3.453125 16.5 -3.484375 C 15.992188 -3.515625 15.453125 -3.515625 14.945312 -3.484375 C 14.28125 -3.453125 13.617188 -3.421875 12.953125 -3.421875 L 10.863281 -3.421875 C 10.417969 -9.59375 10.480469 -15.738281 10.734375 -21.851562 C 10.511719 -22.007812 10.324219 -22.199219 10.164062 -22.167969 Z M 10.164062 -22.167969 "/></g></g></g><g fill="#575756" fill-opacity="1"><g transform="translate(286.464666, 258.939173)"><g><path d="M 20.363281 -22.167969 L 20.109375 -22.167969 C 19.09375 -22.167969 18.082031 -22.230469 17.101562 -22.136719 C 16.085938 -22.039062 15.074219 -22.167969 14.089844 -22.101562 C 13.078125 -22.007812 12.035156 -22.136719 11.019531 -22.070312 C 10.324219 -22.039062 9.59375 -22.070312 8.898438 -22.039062 C 6.902344 -21.945312 4.910156 -22.101562 2.914062 -22.007812 C 2.628906 -22.007812 2.46875 -22.070312 2.183594 -21.976562 C 2.121094 -21.882812 1.964844 -21.851562 1.898438 -21.785156 C 1.933594 -21.375 2.058594 -19.03125 1.996094 -16.054688 C 1.933594 -15.167969 1.933594 -14.28125 1.898438 -13.394531 C 1.898438 -12.507812 1.933594 -11.589844 1.933594 -10.703125 C 1.933594 -9.847656 1.996094 -9.023438 2.058594 -8.171875 C 2.121094 -7.632812 2.089844 -7.09375 2.089844 -6.554688 C 2.089844 -5.890625 2.121094 -5.191406 2.058594 -4.558594 C 1.996094 -3.894531 1.996094 -3.292969 2.058594 -2.660156 C 2.121094 -1.773438 2.152344 -0.855469 2.089844 0.03125 C 2.089844 0.160156 2.945312 0.03125 3.230469 0.03125 C 4.054688 0.03125 4.84375 0.09375 5.636719 0.160156 C 6.332031 0.191406 8.960938 0.03125 9.339844 0.03125 C 11.113281 0.03125 12.886719 0.0625 14.628906 0 C 15.992188 -0.03125 17.351562 -0.125 18.714844 -0.03125 C 19.792969 0.03125 20.835938 -0.160156 21.914062 -0.125 C 22.355469 -0.09375 22.578125 -0.347656 22.546875 -0.792969 L 22.546875 -3.167969 C 21.882812 -3.515625 21.25 -3.199219 20.613281 -3.199219 C 19.570312 -3.199219 18.492188 -3.230469 17.449219 -3.101562 C 16.941406 -3.070312 16.402344 -3.167969 15.929688 -3.070312 C 15.105469 -2.945312 14.3125 -2.976562 13.488281 -2.914062 C 12.855469 -2.882812 12.160156 -2.914062 11.496094 -2.945312 C 11.210938 -2.976562 10.894531 -2.851562 10.640625 -3.039062 C 10.546875 -5.226562 10.355469 -7.410156 10.511719 -9.625 L 12.855469 -9.625 C 13.300781 -9.625 13.742188 -9.625 14.1875 -9.660156 C 15.328125 -9.691406 16.433594 -9.753906 17.574219 -9.753906 C 18.175781 -9.753906 18.777344 -9.785156 19.378906 -9.785156 C 19.695312 -9.785156 19.886719 -10.039062 19.886719 -10.355469 C 19.855469 -11.050781 19.824219 -11.75 19.855469 -12.476562 C 19.886719 -12.921875 19.632812 -13.171875 19.191406 -13.203125 C 18.652344 -13.238281 18.113281 -13.203125 17.574219 -13.171875 C 16.464844 -13.140625 15.359375 -13.046875 14.25 -13.046875 C 13.742188 -13.078125 13.238281 -13.109375 12.730469 -13.015625 C 12 -12.921875 11.304688 -13.140625 10.578125 -13.046875 C 10.355469 -14.976562 10.578125 -17.066406 10.511719 -18.96875 C 14.089844 -19.285156 17.703125 -19.0625 21.28125 -19.125 C 21.3125 -19.285156 21.375 -19.441406 21.34375 -19.601562 C 21.28125 -20.171875 21.214844 -20.742188 21.3125 -21.34375 C 21.375 -21.945312 20.996094 -22.230469 20.363281 -22.167969 Z M 20.363281 -22.167969 "/></g></g></g><g fill="#575756" fill-opacity="1"><g transform="translate(309.940566, 258.939173)"><g/></g></g><g fill="#d9d9d9" fill-opacity="1"><g transform="translate(155.15227, 264.471358)"><g><path d="M 3.15625 -4.3125 C 3.15625 -8.445312 3.800781 -12.269531 5.09375 -15.78125 C 6.394531 -19.289062 7.992188 -22.445312 9.890625 -25.25 C 11.785156 -28.050781 14.273438 -31.347656 17.359375 -35.140625 C 20.515625 -39.066406 23.019531 -42.394531 24.875 -45.125 C 26.738281 -47.863281 28.316406 -51.003906 29.609375 -54.546875 C 30.910156 -58.085938 31.5625 -61.925781 31.5625 -66.0625 C 31.5625 -68.519531 31.207031 -70.429688 30.5 -71.796875 C 29.800781 -73.171875 28.539062 -73.859375 26.71875 -73.859375 C 23.707031 -73.859375 22.203125 -71.15625 22.203125 -65.75 L 22.203125 -54.703125 L 3.15625 -54.703125 L 2.953125 -60.28125 C 2.953125 -67.15625 3.648438 -72.800781 5.046875 -77.21875 C 6.453125 -81.632812 8.90625 -85 12.40625 -87.3125 C 15.914062 -89.632812 20.757812 -90.796875 26.9375 -90.796875 C 34.507812 -90.796875 40.363281 -88.671875 44.5 -84.421875 C 48.632812 -80.179688 50.703125 -74.171875 50.703125 -66.390625 C 50.703125 -61.398438 50.019531 -56.890625 48.65625 -52.859375 C 47.289062 -48.828125 45.609375 -45.300781 43.609375 -42.28125 C 41.609375 -39.269531 38.957031 -35.734375 35.65625 -31.671875 C 33.28125 -28.796875 31.300781 -26.234375 29.71875 -23.984375 C 28.144531 -21.742188 26.722656 -19.429688 25.453125 -17.046875 L 50.078125 -17.046875 L 50.078125 0 L 3.15625 0 Z M 3.15625 -4.3125 "/></g></g></g></svg>